<svg width="163" height="38" viewBox="0 0 163 38" fill="none" xmlns="http://www.w3.org/2000/svg">
<path fill-rule="evenodd" clip-rule="evenodd" d="M0 0H163V31H84.7817L80.9012 37.276L76.9418 31H0V0Z" fill="#666666"/>
<path d="M21.2168 11.4336V12.6348H17.5312V20H16.1309V11.4336H21.2168ZM27.791 20H26.4023V14.5977H24.6152C24.5059 15.9883 24.3574 17.0742 24.1699 17.8555C23.9863 18.6367 23.7441 19.207 23.4434 19.5664C23.1465 19.9258 22.7598 20.1055 22.2832 20.1055C21.9824 20.1055 21.7305 20.0625 21.5273 19.9766V18.8984C21.6719 18.9531 21.8164 18.9805 21.9609 18.9805C22.3594 18.9805 22.6719 18.5332 22.8984 17.6387C23.1289 16.7402 23.3086 15.3672 23.4375 13.5195H27.791V20ZM33.8203 20L33.5449 19.0977H33.498C33.1855 19.4922 32.8711 19.7617 32.5547 19.9062C32.2383 20.0469 31.832 20.1172 31.3359 20.1172C30.6992 20.1172 30.2012 19.9453 29.8418 19.6016C29.4863 19.2578 29.3086 18.7715 29.3086 18.1426C29.3086 17.4746 29.5566 16.9707 30.0527 16.6309C30.5488 16.291 31.3047 16.1055 32.3203 16.0742L33.4395 16.0391V15.6934C33.4395 15.2793 33.3418 14.9707 33.1465 14.7676C32.9551 14.5605 32.6562 14.457 32.25 14.457C31.918 14.457 31.5996 14.5059 31.2949 14.6035C30.9902 14.7012 30.6973 14.8164 30.416 14.9492L29.9707 13.9648C30.3223 13.7812 30.707 13.6426 31.125 13.5488C31.543 13.4512 31.9375 13.4023 32.3086 13.4023C33.1328 13.4023 33.7539 13.582 34.1719 13.9414C34.5938 14.3008 34.8047 14.8652 34.8047 15.6348V20H33.8203ZM31.7695 19.0625C32.2695 19.0625 32.6699 18.9238 32.9707 18.6465C33.2754 18.3652 33.4277 17.9727 33.4277 17.4688V16.9062L32.5957 16.9414C31.9473 16.9648 31.4746 17.0742 31.1777 17.2695C30.8848 17.4609 30.7383 17.7559 30.7383 18.1543C30.7383 18.4434 30.8242 18.668 30.9961 18.8281C31.168 18.9844 31.4258 19.0625 31.7695 19.0625ZM42.3516 15.1777C42.3516 15.9434 41.9043 16.4062 41.0098 16.5664V16.6133C41.5098 16.6719 41.8926 16.8301 42.1582 17.0879C42.4238 17.3457 42.5566 17.6797 42.5566 18.0898C42.5566 18.7031 42.3223 19.1758 41.8535 19.5078C41.3887 19.8359 40.7109 20 39.8203 20H36.7266V13.5195H39.8086C41.5039 13.5195 42.3516 14.0723 42.3516 15.1777ZM41.1445 18.0078C41.1445 17.6953 41.0234 17.4746 40.7812 17.3457C40.5391 17.2129 40.1758 17.1465 39.6914 17.1465H38.1035V18.9805H39.7266C40.6719 18.9805 41.1445 18.6562 41.1445 18.0078ZM40.9746 15.2949C40.9746 15.0371 40.873 14.8516 40.6699 14.7383C40.4707 14.6211 40.1719 14.5625 39.7734 14.5625H38.1035V16.1211H39.5684C40.0293 16.1211 40.3789 16.0625 40.6172 15.9453C40.8555 15.8242 40.9746 15.6074 40.9746 15.2949ZM48.0352 20L47.7598 19.0977H47.7129C47.4004 19.4922 47.0859 19.7617 46.7695 19.9062C46.4531 20.0469 46.0469 20.1172 45.5508 20.1172C44.9141 20.1172 44.416 19.9453 44.0566 19.6016C43.7012 19.2578 43.5234 18.7715 43.5234 18.1426C43.5234 17.4746 43.7715 16.9707 44.2676 16.6309C44.7637 16.291 45.5195 16.1055 46.5352 16.0742L47.6543 16.0391V15.6934C47.6543 15.2793 47.5566 14.9707 47.3613 14.7676C47.1699 14.5605 46.8711 14.457 46.4648 14.457C46.1328 14.457 45.8145 14.5059 45.5098 14.6035C45.2051 14.7012 44.9121 14.8164 44.6309 14.9492L44.1855 13.9648C44.5371 13.7812 44.9219 13.6426 45.3398 13.5488C45.7578 13.4512 46.1523 13.4023 46.5234 13.4023C47.3477 13.4023 47.9688 13.582 48.3867 13.9414C48.8086 14.3008 49.0195 14.8652 49.0195 15.6348V20H48.0352ZM45.9844 19.0625C46.4844 19.0625 46.8848 18.9238 47.1855 18.6465C47.4902 18.3652 47.6426 17.9727 47.6426 17.4688V16.9062L46.8105 16.9414C46.1621 16.9648 45.6895 17.0742 45.3926 17.2695C45.0996 17.4609 44.9531 17.7559 44.9531 18.1543C44.9531 18.4434 45.0391 18.668 45.2109 18.8281C45.3828 18.9844 45.6406 19.0625 45.9844 19.0625ZM59.4082 20H53.6016V18.957L55.8105 16.7363C56.4629 16.0684 56.8945 15.5957 57.1055 15.3184C57.3203 15.0371 57.4766 14.7734 57.5742 14.5273C57.6719 14.2812 57.7207 14.0176 57.7207 13.7363C57.7207 13.3496 57.6035 13.0449 57.3691 12.8223C57.1387 12.5996 56.8184 12.4883 56.4082 12.4883C56.0801 12.4883 55.7617 12.5488 55.4531 12.6699C55.1484 12.791 54.7949 13.0098 54.3926 13.3262L53.6484 12.418C54.125 12.0156 54.5879 11.7305 55.0371 11.5625C55.4863 11.3945 55.9648 11.3105 56.4727 11.3105C57.2695 11.3105 57.9082 11.5195 58.3887 11.9375C58.8691 12.3516 59.1094 12.9102 59.1094 13.6133C59.1094 14 59.0391 14.3672 58.8984 14.7148C58.7617 15.0625 58.5488 15.4219 58.2598 15.793C57.9746 16.1602 57.498 16.6582 56.8301 17.2871L55.3418 18.7285V18.7871H59.4082V20ZM62.3438 18.7402C62.1562 19.4668 61.8125 20.4023 61.3125 21.5469H60.2988C60.5684 20.4922 60.7695 19.5117 60.9023 18.6055H62.2559L62.3438 18.7402ZM69.8555 20.1172C68.875 20.1172 68.1289 19.832 67.6172 19.2617C67.1094 18.6875 66.8555 17.8652 66.8555 16.7949C66.8555 15.7051 67.1211 14.8672 67.6523 14.2812C68.1875 13.6953 68.959 13.4023 69.9668 13.4023C70.6504 13.4023 71.2656 13.5293 71.8125 13.7832L71.3965 14.8906C70.8145 14.6641 70.334 14.5508 69.9551 14.5508C68.834 14.5508 68.2734 15.2949 68.2734 16.7832C68.2734 17.5098 68.4121 18.0566 68.6895 18.4238C68.9707 18.7871 69.3809 18.9688 69.9199 18.9688C70.5332 18.9688 71.1133 18.8164 71.6602 18.5117V19.7129C71.4141 19.8574 71.1504 19.9609 70.8691 20.0234C70.5918 20.0859 70.2539 20.1172 69.8555 20.1172ZM78.0527 13.5195V14.5977H75.9434V20H74.5605V14.5977H72.4512V13.5195H78.0527ZM82.5879 20.1172C81.7676 20.1172 81.1309 19.8223 80.6777 19.2324H80.5957C80.6504 19.7793 80.6777 20.1113 80.6777 20.2285V22.8828H79.3008V13.5195H80.4141C80.4453 13.6406 80.5098 13.9297 80.6074 14.3867H80.6777C81.1074 13.7305 81.752 13.4023 82.6113 13.4023C83.4199 13.4023 84.0488 13.6953 84.498 14.2812C84.9512 14.8672 85.1777 15.6895 85.1777 16.748C85.1777 17.8066 84.9473 18.6328 84.4863 19.2266C84.0293 19.8203 83.3965 20.1172 82.5879 20.1172ZM82.2539 14.5273C81.707 14.5273 81.3066 14.6875 81.0527 15.0078C80.8027 15.3281 80.6777 15.8398 80.6777 16.543V16.748C80.6777 17.5371 80.8027 18.1094 81.0527 18.4648C81.3027 18.8164 81.7109 18.9922 82.2773 18.9922C82.7539 18.9922 83.1211 18.7969 83.3789 18.4062C83.6367 18.0156 83.7656 17.459 83.7656 16.7363C83.7656 16.0098 83.6367 15.4609 83.3789 15.0898C83.125 14.7148 82.75 14.5273 82.2539 14.5273ZM90.832 20L90.5566 19.0977H90.5098C90.1973 19.4922 89.8828 19.7617 89.5664 19.9062C89.25 20.0469 88.8438 20.1172 88.3477 20.1172C87.7109 20.1172 87.2129 19.9453 86.8535 19.6016C86.498 19.2578 86.3203 18.7715 86.3203 18.1426C86.3203 17.4746 86.5684 16.9707 87.0645 16.6309C87.5605 16.291 88.3164 16.1055 89.332 16.0742L90.4512 16.0391V15.6934C90.4512 15.2793 90.3535 14.9707 90.1582 14.7676C89.9668 14.5605 89.668 14.457 89.2617 14.457C88.9297 14.457 88.6113 14.5059 88.3066 14.6035C88.002 14.7012 87.709 14.8164 87.4277 14.9492L86.9824 13.9648C87.334 13.7812 87.7188 13.6426 88.1367 13.5488C88.5547 13.4512 88.9492 13.4023 89.3203 13.4023C90.1445 13.4023 90.7656 13.582 91.1836 13.9414C91.6055 14.3008 91.8164 14.8652 91.8164 15.6348V20H90.832ZM88.7812 19.0625C89.2812 19.0625 89.6816 18.9238 89.9824 18.6465C90.2871 18.3652 90.4395 17.9727 90.4395 17.4688V16.9062L89.6074 16.9414C88.959 16.9648 88.4863 17.0742 88.1895 17.2695C87.8965 17.4609 87.75 17.7559 87.75 18.1543C87.75 18.4434 87.8359 18.668 88.0078 18.8281C88.1797 18.9844 88.4375 19.0625 88.7812 19.0625ZM95.1152 13.5195V16.1211H98.168V13.5195H99.5449V20H98.168V17.2051H95.1152V20H93.7383V13.5195H95.1152ZM102.838 13.5195V16.8418C102.838 17.2285 102.807 17.7969 102.744 18.5469L105.996 13.5195H107.678V20H106.354V16.7363C106.354 16.5566 106.363 16.2656 106.383 15.8633C106.406 15.4609 106.426 15.168 106.441 14.9844L103.201 20H101.52V13.5195H102.838ZM115.412 18.9336H116.35V22.2793H115.055V20H109.641V13.5195H111.018V18.9102H114.035V13.5195H115.412V18.9336ZM121.582 20L121.307 19.0977H121.26C120.947 19.4922 120.633 19.7617 120.316 19.9062C120 20.0469 119.594 20.1172 119.098 20.1172C118.461 20.1172 117.963 19.9453 117.604 19.6016C117.248 19.2578 117.07 18.7715 117.07 18.1426C117.07 17.4746 117.318 16.9707 117.814 16.6309C118.311 16.291 119.066 16.1055 120.082 16.0742L121.201 16.0391V15.6934C121.201 15.2793 121.104 14.9707 120.908 14.7676C120.717 14.5605 120.418 14.457 120.012 14.457C119.68 14.457 119.361 14.5059 119.057 14.6035C118.752 14.7012 118.459 14.8164 118.178 14.9492L117.732 13.9648C118.084 13.7812 118.469 13.6426 118.887 13.5488C119.305 13.4512 119.699 13.4023 120.07 13.4023C120.895 13.4023 121.516 13.582 121.934 13.9414C122.355 14.3008 122.566 14.8652 122.566 15.6348V20H121.582ZM119.531 19.0625C120.031 19.0625 120.432 18.9238 120.732 18.6465C121.037 18.3652 121.189 17.9727 121.189 17.4688V16.9062L120.357 16.9414C119.709 16.9648 119.236 17.0742 118.939 17.2695C118.646 17.4609 118.5 17.7559 118.5 18.1543C118.5 18.4434 118.586 18.668 118.758 18.8281C118.93 18.9844 119.188 19.0625 119.531 19.0625ZM131.191 20H129.814V14.4688C129.814 13.8086 129.83 13.2852 129.861 12.8984C129.771 12.9922 129.66 13.0957 129.527 13.209C129.398 13.3223 128.961 13.6816 128.215 14.2871L127.523 13.4141L130.043 11.4336H131.191V20ZM134.977 20L138.363 12.6582H133.91V11.4453H139.834V12.4062L136.465 20H134.977ZM140.883 16.3496C140.883 12.998 142.248 11.3223 144.979 11.3223C145.408 11.3223 145.771 11.3555 146.068 11.4219V12.5703C145.771 12.4844 145.428 12.4414 145.037 12.4414C144.119 12.4414 143.43 12.6875 142.969 13.1797C142.508 13.6719 142.258 14.4609 142.219 15.5469H142.289C142.473 15.2305 142.73 14.9863 143.062 14.8145C143.395 14.6387 143.785 14.5508 144.234 14.5508C145.012 14.5508 145.617 14.7891 146.051 15.2656C146.484 15.7422 146.701 16.3887 146.701 17.2051C146.701 18.1035 146.449 18.8145 145.945 19.3379C145.445 19.8574 144.762 20.1172 143.895 20.1172C143.281 20.1172 142.748 19.9707 142.295 19.6777C141.842 19.3809 141.492 18.9512 141.246 18.3887C141.004 17.8223 140.883 17.1426 140.883 16.3496ZM143.871 18.9805C144.344 18.9805 144.707 18.8281 144.961 18.5234C145.219 18.2188 145.348 17.7832 145.348 17.2168C145.348 16.7246 145.227 16.3379 144.984 16.0566C144.746 15.7754 144.387 15.6348 143.906 15.6348C143.609 15.6348 143.336 15.6992 143.086 15.8281C142.836 15.9531 142.639 16.127 142.494 16.3496C142.35 16.5684 142.277 16.793 142.277 17.0234C142.277 17.5742 142.426 18.0391 142.723 18.418C143.023 18.793 143.406 18.9805 143.871 18.9805Z" fill="white"/>
</svg>
